<svg width="138" height="56" viewBox="0 0 138 56" fill="none" xmlns="http://www.w3.org/2000/svg">
<path d="M61.5114 35.4247V27.3636H63.6065V41H61.5114V38.6918H61.3693C61.0497 39.3842 60.5526 39.9731 59.8778 40.4585C59.2031 40.9379 58.3509 41.1776 57.321 41.1776C56.4688 41.1776 55.7112 40.9911 55.0483 40.6183C54.3854 40.2395 53.8646 39.6713 53.4858 38.9137C53.107 38.1502 52.9176 37.1884 52.9176 36.0284V27.3636H55.0128V35.8864C55.0128 36.8807 55.291 37.6738 55.8473 38.2656C56.4096 38.8575 57.1257 39.1534 57.9957 39.1534C58.5166 39.1534 59.0463 39.0202 59.5849 38.7539C60.1294 38.4876 60.5851 38.0792 60.9521 37.5288C61.3249 36.9783 61.5114 36.277 61.5114 35.4247ZM73.1613 41.2841C71.8474 41.2841 70.714 40.9941 69.7611 40.4141C68.8141 39.8281 68.0832 39.0114 67.5683 37.9638C67.0593 36.9103 66.8048 35.6851 66.8048 34.2884C66.8048 32.8916 67.0593 31.6605 67.5683 30.5952C68.0832 29.5239 68.7993 28.6894 69.7167 28.0916C70.64 27.4879 71.7172 27.1861 72.9482 27.1861C73.6585 27.1861 74.3598 27.3045 75.0523 27.5412C75.7448 27.7779 76.3751 28.1626 76.9433 28.6953C77.5115 29.2221 77.9642 29.9205 78.3016 30.7905C78.6389 31.6605 78.8076 32.7318 78.8076 34.0043V34.892H68.2963V33.081H76.6769C76.6769 32.3116 76.5231 31.625 76.2153 31.0213C75.9134 30.4176 75.4814 29.9412 74.9191 29.592C74.3628 29.2428 73.7058 29.0682 72.9482 29.0682C72.1137 29.0682 71.3917 29.2753 70.782 29.6896C70.1784 30.098 69.7137 30.6307 69.3882 31.2876C69.0627 31.9446 68.8999 32.6489 68.8999 33.4006V34.608C68.8999 35.6378 69.0775 36.5108 69.4326 37.2269C69.7936 37.9371 70.2938 38.4787 70.933 38.8516C71.5722 39.2185 72.315 39.402 73.1613 39.402C73.7117 39.402 74.2089 39.325 74.6528 39.1712C75.1026 39.0114 75.4903 38.7746 75.8158 38.4609C76.1413 38.1413 76.3928 37.7448 76.5704 37.2713L78.5945 37.8395C78.3815 38.526 78.0234 39.1297 77.5203 39.6506C77.0173 40.1655 76.3958 40.5679 75.656 40.858C74.9162 41.142 74.0846 41.2841 73.1613 41.2841ZM81.9948 41V27.3636H84.0189V29.4233H84.161C84.4095 28.7486 84.8593 28.2011 85.5104 27.7809C86.1614 27.3607 86.8953 27.1506 87.7121 27.1506C87.866 27.1506 88.0583 27.1535 88.2892 27.1594C88.52 27.1654 88.6946 27.1742 88.8129 27.1861V29.3168C88.7419 29.299 88.5792 29.2724 88.3247 29.2369C88.0761 29.1954 87.8127 29.1747 87.5345 29.1747C86.8717 29.1747 86.2798 29.3138 85.759 29.592C85.2441 29.8642 84.8357 30.243 84.5338 30.7283C84.2379 31.2077 84.0899 31.7552 84.0899 32.3707V41H81.9948ZM93.061 46.1136C92.7059 46.1136 92.3892 46.084 92.1111 46.0249C91.8329 45.9716 91.6405 45.9183 91.534 45.8651L92.0667 44.0185C92.5757 44.1487 93.0255 44.196 93.4161 44.1605C93.8067 44.125 94.153 43.9504 94.4548 43.6367C94.7626 43.329 95.0437 42.8288 95.2982 42.1364L95.6888 41.071L90.6462 27.3636H92.9189L96.6831 38.2301H96.8252L100.589 27.3636H102.862L97.0738 42.9886C96.8134 43.6929 96.4908 44.2759 96.1061 44.7376C95.7214 45.2051 95.2745 45.5514 94.7655 45.7763C94.2625 46.0012 93.6943 46.1136 93.061 46.1136ZM105.912 41V22.8182H108.113V31.8381H108.326L116.494 22.8182H119.37L111.736 31.0213L119.37 41H116.707L110.386 32.5483L108.113 35.1051V41H105.912ZM122.791 41V27.3636H124.886V41H122.791ZM123.856 25.0909C123.448 25.0909 123.095 24.9518 122.8 24.6737C122.51 24.3955 122.365 24.0611 122.365 23.6705C122.365 23.2798 122.51 22.9454 122.8 22.6673C123.095 22.3891 123.448 22.25 123.856 22.25C124.264 22.25 124.614 22.3891 124.904 22.6673C125.2 22.9454 125.347 23.2798 125.347 23.6705C125.347 24.0611 125.2 24.3955 124.904 24.6737C124.614 24.9518 124.264 25.0909 123.856 25.0909ZM134.654 27.3636V29.1392H127.587V27.3636H134.654ZM129.647 24.0966H131.742V37.0938C131.742 37.6856 131.828 38.1295 131.999 38.4254C132.177 38.7154 132.402 38.9107 132.674 39.0114C132.952 39.1061 133.245 39.1534 133.553 39.1534C133.784 39.1534 133.973 39.1416 134.121 39.1179C134.269 39.0883 134.387 39.0646 134.476 39.0469L134.902 40.929C134.76 40.9822 134.562 41.0355 134.307 41.0888C134.053 41.148 133.73 41.1776 133.34 41.1776C132.748 41.1776 132.168 41.0503 131.6 40.7958C131.037 40.5413 130.57 40.1536 130.197 39.6328C129.83 39.112 129.647 38.455 129.647 37.6619V24.0966Z" fill="#135E00"/>
<circle cx="35.9924" cy="34.2126" r="12.7231" stroke="#D9D9D9"/>
<path d="M49.7059 55.0641L41.7231 46.0618L43.8124 44.3904L43.834 44.3731L43.8536 44.3536L45.4805 42.7266L53.545 51.7072L49.7059 55.0641Z" stroke="#D9D9D9"/>
<path d="M27.8552 47.4348C25.9565 47.3896 21.7522 47.4357 18.7007 47.4357C15.6493 47.4357 12.5978 47.4357 9.05409 46.3146C6.54419 45.4575 4.4077 44.339 2.64463 42.9593C0.881553 41.5796 1.59554e-05 39.9178 1.59554e-05 37.9739V31.1928C1.59554e-05 32.8203 0.644669 34.2561 1.93397 35.5002C3.22328 36.7443 4.83898 37.784 6.78107 38.6194C8.72317 39.4549 10.8597 40.133 13.1905 40.6538C15.5214 41.1745 20.3952 41.1076 22.4259 41.3318C22.8327 42.6428 23.7102 43.4352 24.4118 44.6341C25.1134 45.833 26.9076 46.442 27.8552 47.4348ZM21.3956 34.8274C19.3613 34.6014 14.8364 34.7334 12.5978 34.2126C10.3591 33.6918 8.35157 32.5924 6.48 31.7353C4.60842 30.8782 3.05963 29.8502 1.83362 28.6513C0.6076 27.4524 -0.00360061 26.0393 1.59554e-05 24.4118V17.6308C1.59554e-05 19.3486 0.712479 20.8404 2.13741 22.1062C3.56233 23.372 5.32541 24.4462 7.42663 25.3286C9.52786 26.2111 11.8108 26.8891 14.2755 27.3629C16.7402 27.8367 20.3934 28.4705 22.4259 28.6513C21.8834 29.6459 21.7356 30.6268 21.3956 31.7353C21.0557 32.8438 21.4842 33.6539 21.3956 34.8274ZM26.4461 22.3775C19.7103 22.3775 11.9229 20.637 7.15268 18.5123C2.38243 16.3876 -0.00179233 13.8334 1.59554e-05 10.8497C0.00182424 7.86603 2.38695 5.31184 7.15539 3.1871C11.9238 1.06237 17.676 0 24.4118 0C31.1929 0 36.9568 1.06237 41.7035 3.1871C46.4503 5.31184 48.8236 7.86603 48.8236 10.8497C48.8236 13.8334 47.3529 16.3876 42.6061 18.5123C37.8594 20.637 36.6177 18.3089 26.4461 22.3775Z" fill="#135E00"/>
<path d="M45 21L46.5 20.5L49 17.5V25.5L48.5 24.5L48 24L45 21Z" fill="#135E00"/>
</svg>
